<?xml version="1.0" standalone="no"?>
<!DOCTYPE svg PUBLIC "-//W3C//DTD SVG 20010904//EN"
 "http://www.w3.org/TR/2001/REC-SVG-20010904/DTD/svg10.dtd">
<svg version="1.0" xmlns="http://www.w3.org/2000/svg"
 width="200.000000pt" height="200.000000pt" viewBox="0 0 200.000000 200.000000"
 preserveAspectRatio="xMidYMid meet">
<metadata>
Created by potrace 1.11, written by Peter Selinger 2001-2013
</metadata>
<g transform="translate(0.000000,200.000000) scale(0.100000,-0.100000)"
fill="#000000" stroke="none">
<path d="M456 1965 c-15 -19 -44 -42 -64 -51 -33 -14 -35 -17 -20 -28 16 -12
16 -14 -5 -34 -14 -14 -36 -22 -58 -22 l-34 0 25 -20 c14 -10 26 -29 28 -42 1
-13 3 -27 4 -33 1 -5 -11 -60 -26 -121 l-26 -111 25 -89 c14 -49 28 -97 31
-106 4 -14 0 -16 -30 -11 -21 3 -42 1 -50 -6 -21 -18 -29 -124 -17 -214 21
-151 131 -302 206 -283 19 5 29 -4 66 -62 24 -37 84 -106 133 -154 l89 -88
-134 0 c-144 0 -183 -11 -241 -63 -56 -52 -63 -78 -66 -259 l-4 -168 188 0
c141 0 185 3 177 11 -9 9 -3 23 24 55 40 49 52 53 78 24 23 -25 33 -25 62 2
18 17 28 20 40 12 29 -18 39 -42 26 -63 -20 -31 3 -41 98 -41 65 0 90 4 99 15
10 13 10 19 -5 35 -17 19 -17 21 0 40 23 25 37 25 60 0 23 -25 37 -25 60 0 26
29 39 25 79 -22 27 -32 33 -44 25 -55 -10 -11 23 -13 191 -13 l202 0 -5 152
c-2 84 -10 171 -17 193 -16 53 -93 129 -145 144 -22 6 -98 11 -169 11 l-130 0
75 69 c43 40 97 104 129 153 l55 84 43 -4 c41 -4 45 -2 87 43 86 91 123 214
112 363 -6 78 -20 106 -49 99 -23 -7 -23 0 6 77 20 51 23 72 16 98 -5 18 -14
83 -20 143 -13 127 -23 172 -55 235 -28 54 -65 90 -122 119 -41 21 -54 21
-531 21 l-490 0 -26 -35z m416 -202 c24 -9 53 -25 66 -37 20 -17 24 -18 32 -6
5 8 10 19 10 24 0 5 73 7 178 3 99 -4 183 -3 191 2 10 7 20 2 35 -16 19 -25
19 -26 1 -39 -17 -13 -17 -15 -2 -32 10 -10 26 -58 36 -106 14 -61 26 -92 39
-102 23 -16 37 -63 24 -76 -6 -6 -20 1 -37 18 -26 26 -30 27 -98 21 -110 -10
-230 -37 -245 -55 -12 -15 -12 -13 -6 13 l7 30 -32 -32 c-69 -72 -27 -80 169
-33 146 35 166 36 220 13 39 -17 50 -35 30 -48 -8 -5 -7 -12 2 -22 8 -10 12
-38 9 -81 -3 -62 -2 -65 18 -59 26 6 26 12 -4 -122 -44 -194 -87 -274 -221
-408 -100 -99 -191 -153 -296 -175 -49 -10 -58 -9 -118 17 -118 50 -220 134
-313 260 -75 100 -83 120 -118 280 -36 160 -36 159 -5 151 14 -3 27 -3 29 1 3
5 -1 44 -9 87 -12 69 -12 82 0 95 10 11 12 21 5 32 -6 12 -4 21 6 29 9 7 13
20 10 30 -3 9 3 24 15 35 11 10 20 30 20 45 0 15 5 53 11 86 15 77 51 116 138
148 131 49 146 51 203 29z m-478 -62 c10 -11 24 -17 32 -14 8 3 21 2 29 -1 14
-5 14 -8 -1 -31 -12 -18 -22 -23 -39 -19 -17 4 -24 0 -28 -15 -5 -22 -31 -28
-42 -11 -8 13 14 110 24 110 5 0 16 -9 25 -19z m1244 7 c14 -17 20 -137 7
-139 -5 -1 -17 18 -25 42 -12 35 -20 44 -39 44 -13 0 -30 10 -38 22 -15 22
-15 23 14 17 20 -4 33 -1 42 10 16 19 25 20 39 4z m-1295 -472 c21 -19 37 -43
37 -55 0 -19 -4 -18 -31 14 -36 41 -68 47 -70 13 -1 -19 -2 -19 -6 -5 -7 27 5
67 20 67 7 0 30 -15 50 -34z m1352 -21 c10 -77 -10 -198 -42 -257 -62 -113
-133 -163 -141 -97 -4 31 15 48 58 54 38 5 61 22 59 44 -3 37 2 62 11 56 17
-10 23 23 10 55 -7 16 -21 32 -31 35 -25 8 -24 35 1 35 11 0 20 -4 20 -10 0
-5 5 -10 10 -10 18 0 10 29 -11 40 -20 11 -20 12 -3 31 25 28 34 24 34 -16 0
-19 5 -35 10 -35 17 0 12 76 -6 91 -14 11 -21 8 -50 -24 -22 -24 -34 -31 -34
-21 0 20 63 84 83 84 11 0 17 -15 22 -55z m-1367 -26 c11 -17 10 -23 -10 -39
-13 -10 -20 -22 -15 -26 4 -4 13 -2 19 4 15 15 38 16 38 1 0 -6 -11 -20 -25
-31 -18 -14 -25 -29 -25 -53 0 -18 5 -35 11 -37 6 -2 12 -18 13 -34 2 -41 22
-64 56 -64 31 0 45 -13 55 -53 6 -24 4 -27 -18 -27 -18 0 -36 13 -60 43 -59
71 -86 136 -92 218 -3 48 -2 67 4 54 8 -18 10 -18 16 -3 4 9 4 21 1 27 -7 10
3 41 13 41 3 0 12 -9 19 -21z m1270 -156 c16 -28 1 -66 -33 -89 -14 -9 -28
-15 -30 -12 -3 3 5 47 17 99 20 85 23 91 28 59 4 -19 12 -45 18 -57z m-1182
-101 c-10 -9 -56 45 -56 66 0 9 8 36 18 59 l17 43 14 -80 c8 -44 11 -84 7 -88z
m-68 123 c-6 -14 -13 -23 -15 -21 -5 5 15 46 22 46 3 0 -1 -11 -7 -25z m1279
10 c9 -25 -4 -29 -17 -6 -7 15 -7 21 0 21 6 0 13 -7 17 -15z m-438 -662 c-23
-42 -111 -76 -211 -81 -139 -7 -218 35 -218 114 0 41 8 42 56 9 93 -63 222
-58 334 13 l45 28 3 -29 c2 -17 -2 -41 -9 -54z m-13 -80 c-31 -60 -146 -143
-198 -143 -13 0 -45 13 -73 29 -51 30 -133 106 -123 116 3 3 21 -1 41 -10 86
-36 243 -27 322 19 22 12 41 22 43 20 2 -1 -3 -15 -12 -31z"/>
<path d="M541 1404 c-54 -33 -42 -44 54 -44 39 0 102 -7 140 -16 39 -8 91 -17
118 -20 40 -4 47 -2 46 13 -1 22 -17 63 -18 45 -1 -10 -5 -10 -21 0 -17 11
-22 10 -30 -2 -5 -8 -10 -10 -10 -4 0 11 -108 39 -190 49 -37 5 -52 1 -89 -21z"/>
<path d="M612 1282 c-8 -6 -10 -19 -6 -41 5 -23 10 -29 17 -22 19 19 35 12 39
-20 4 -28 3 -30 -20 -24 -17 4 -23 2 -20 -7 6 -16 178 -24 178 -8 0 5 -6 10
-14 10 -9 0 -12 8 -8 26 3 20 9 24 24 20 17 -4 19 -1 14 17 -3 12 -6 25 -6 29
0 21 -168 38 -198 20z m158 -62 c0 -5 -9 -10 -20 -10 -11 0 -20 5 -20 10 0 6
9 10 20 10 11 0 20 -4 20 -10z"/>
<path d="M1183 1279 c-22 -6 -34 -18 -42 -39 -9 -29 -9 -30 13 -24 19 4 24 1
28 -20 4 -18 1 -26 -8 -26 -8 0 -14 -5 -14 -10 0 -16 172 -8 178 8 3 9 -3 11
-20 7 -23 -6 -24 -4 -20 24 4 30 24 41 37 21 11 -18 23 -11 28 18 4 18 1 31
-11 40 -18 14 -121 15 -169 1z m102 -59 c-3 -5 -13 -10 -21 -10 -8 0 -14 5
-14 10 0 6 9 10 21 10 11 0 17 -4 14 -10z"/>
<path d="M919 900 c25 -21 41 -26 41 -12 0 9 -44 32 -58 32 -4 -1 4 -10 17
-20z"/>
<path d="M1020 905 c-7 -9 -10 -19 -6 -22 8 -9 38 9 44 25 5 17 -23 15 -38 -3z"/>
<path d="M945 758 c-87 -5 -161 -11 -163 -13 -9 -8 22 -36 60 -56 35 -18 46
-19 155 -8 120 11 143 19 187 68 l19 21 -49 -1 c-27 -1 -121 -6 -209 -11z
m195 -18 c0 -5 -10 -16 -23 -24 -33 -22 -257 -27 -282 -6 -17 14 -3 16 136 26
85 6 157 12 162 12 4 1 7 -2 7 -8z"/>
<path d="M931 623 l-34 -17 29 -8 c32 -8 98 8 89 22 -3 5 -12 7 -20 3 -8 -3
-15 0 -15 6 0 15 -9 14 -49 -6z"/>
</g>
</svg>
